<?xml version="1.0" standalone="no"?><!DOCTYPE svg PUBLIC "-//W3C//DTD SVG 1.1//EN" "http://www.w3.org/Graphics/SVG/1.1/DTD/svg11.dtd"><svg t="1701771218279" class="icon" viewBox="0 0 1024 1024" version="1.1" xmlns="http://www.w3.org/2000/svg" p-id="9222"  xmlns:xlink="http://www.w3.org/1999/xlink"><path d="M394.397538 157.538462l118.193231 78.76923H787.692308a78.769231 78.769231 0 0 1 78.76923 78.769231v472.615385a78.769231 78.769231 0 0 1-78.76923 78.76923H236.307692a78.769231 78.769231 0 0 1-78.76923-78.76923V236.307692a78.769231 78.769231 0 0 1 78.76923-78.76923h158.089846zM834.953846 468.637538H189.046154V787.692308a47.261538 47.261538 0 0 0 42.417231 47.02523L236.307692 834.953846h551.384616a47.261538 47.261538 0 0 0 47.02523-42.417231L834.953846 787.692308l-0.039384-319.05477zM384.905846 189.046154H236.307692a47.261538 47.261538 0 0 0-47.02523 42.417231L189.046154 236.307692v200.822154h645.868308L834.953846 315.076923a47.261538 47.261538 0 0 0-42.417231-47.025231L787.692308 267.815385h-275.101539a31.507692 31.507692 0 0 1-13.430154-2.993231l-4.056615-2.284308L384.905846 189.046154z" fill="#333333" p-id="9223"></path></svg>